HIERARCHY
ROOT hip
{
	OFFSET 0.000000 0.000000 0.000000
	CHANNELS 6 Xposition Yposition Zposition Zrotation Yrotation Xrotation 
	JOINT lhipjoint
	{
		OFFSET 0.000000 0.000000 0.000000
		CHANNELS 3 Zrotation Yrotation Xrotation
		JOINT lfemur
		{
			OFFSET 1.363060 -1.794630 0.839290
			CHANNELS 3 Zrotation Yrotation Xrotation
			JOINT ltibia
			{
				OFFSET 2.448110 -6.726130 0.000000
				CHANNELS 3 Zrotation Yrotation Xrotation
				JOINT lfoot
				{
					OFFSET 2.562200 -7.039590 0.000000
					CHANNELS 3 Zrotation Yrotation Xrotation
					JOINT ltoes
					{
						OFFSET 0.157640 -0.433110 2.322550
						CHANNELS 3 Zrotation Yrotation Xrotation
						End Site
						{
							OFFSET 0.000000 0.000000 0.000000
						}
					}
				}
			}
		}
	}
	JOINT rhipjoint
	{
		OFFSET 0.000000 0.000000 0.000000
		CHANNELS 3 Zrotation Yrotation Xrotation
		JOINT rfemur
		{
			OFFSET -1.305520 -1.794630 0.839290
			CHANNELS 3 Zrotation Yrotation Xrotation
			JOINT rtibia
			{
				OFFSET -2.542530 -6.985550 0.000000
				CHANNELS 3 Zrotation Yrotation Xrotation
				JOINT rfoot
				{
					OFFSET -2.568260 -7.056230 0.000000
					CHANNELS 3 Zrotation Yrotation Xrotation
					JOINT rtoes
					{
						OFFSET -0.164730 -0.452590 2.363150
						CHANNELS 3 Zrotation Yrotation Xrotation
						End Site
						{
							OFFSET 0.000000 0.000000 0.000000
						}
					}
				}
			}
		}
	}
	JOINT lowerback
	{
		OFFSET 0.000000 0.000000 0.000000
		CHANNELS 3 Zrotation Yrotation Xrotation
		JOINT upperback
		{
			OFFSET 0.028270 2.035590 -0.193380
			CHANNELS 3 Zrotation Yrotation Xrotation
			JOINT thorax
			{
				OFFSET 0.056720 2.048850 -0.042750
				CHANNELS 3 Zrotation Yrotation Xrotation
				JOINT lowerneck
				{
					OFFSET 0.000000 0.000000 0.000000
					CHANNELS 3 Zrotation Yrotation Xrotation
					JOINT upperneck
					{
						OFFSET -0.054170 1.746240 0.172020
						CHANNELS 3 Zrotation Yrotation Xrotation
						JOINT head
						{
							OFFSET 0.104070 1.761360 -0.123970
							CHANNELS 3 Zrotation Yrotation Xrotation
							End Site
							{
								OFFSET 0.000000 0.000000 0.000000
							}
						}
					}
				}
				JOINT lclavicle
				{
					OFFSET 0.000000 0.000000 0.000000
					CHANNELS 3 Zrotation Yrotation Xrotation
					JOINT lhumerus
					{
						OFFSET 3.362410 1.200890 -0.311210
						CHANNELS 3 Zrotation Yrotation Xrotation
						JOINT lradius
						{
							OFFSET 4.983000 -0.000000 -0.000000
							CHANNELS 3 Zrotation Yrotation Xrotation
							JOINT lwrist
							{
								OFFSET 3.483560 -0.000000 -0.000000
								CHANNELS 3 Zrotation Yrotation Xrotation
								JOINT lhand
								{
									OFFSET 0.000000 0.000000 0.000000
									CHANNELS 3 Zrotation Yrotation Xrotation
									JOINT lfingers
									{
										OFFSET 0.715260 -0.000000 -0.000000
										CHANNELS 3 Zrotation Yrotation Xrotation
										End Site
										{
											OFFSET 0.000000 0.000000 0.000000
										}
									}
								}
								JOINT lthumb
								{
									OFFSET 0.000000 0.000000 0.000000
									CHANNELS 3 Zrotation Yrotation Xrotation
									End Site
									{
										OFFSET 0.000000 0.000000 0.000000
									}
								}
							}
						}
					}
				}
				JOINT rclavicle
				{
					OFFSET 0.000000 0.000000 0.000000
					CHANNELS 3 Zrotation Yrotation Xrotation
					JOINT rhumerus
					{
						OFFSET -3.136600 1.374050 -0.404650
						CHANNELS 3 Zrotation Yrotation Xrotation
						JOINT rradius
						{
							OFFSET -5.241900 -0.000000 -0.000000
							CHANNELS 3 Zrotation Yrotation Xrotation
							JOINT rwrist
							{
								OFFSET -3.444170 -0.000000 -0.000000
								CHANNELS 3 Zrotation Yrotation Xrotation
								JOINT rhand
								{
									OFFSET 0.000000 0.000000 0.000000
									CHANNELS 3 Zrotation Yrotation Xrotation
									JOINT rfingers
									{
										OFFSET -0.622530 -0.000000 -0.000000
										CHANNELS 3 Zrotation Yrotation Xrotation
										End Site
										{
											OFFSET 0.000000 0.000000 0.000000
										}
									}
								}
								JOINT rthumb
								{
									OFFSET 0.000000 0.000000 0.000000
									CHANNELS 3 Zrotation Yrotation Xrotation
									End Site
									{
										OFFSET 0.000000 0.000000 0.000000
									}
								}
							}
						}
					}
				}
			}
		}
	}
}
MOTION
Frames: 11
Frame Time: 0.008333
-32.349925 28.843201 -7.081094 -174.679588 67.003731 -169.930968 -3.528969 2.007281 1.931034 -14.973821 3.967237 -13.761625 3.175954 9.871405 31.634708 -0.016954 3.277621 -11.661399 0.894400 -6.027600 -16.864500 -0.696218 -3.893093 1.228856 26.696217 -0.381223 -24.881870 -4.303274 -11.181745 37.335004 0.528905 -5.437037 -11.407803 -0.004400 0.429500 -1.180100 2.257371 -0.642167 1.381117 0.953879 -1.104615 -4.116661 0.810201 0.357129 3.884868 -6.875096 -7.605180 -3.692763 -0.186712 -9.063001 7.135437 4.653200 -4.424900 2.835600 1.449230 2.332675 0.253099 -77.154102 -1.218156 12.858919 12.092979 -33.705690 -3.848567 -1.041897 0.930428 -171.105118 20.927679 3.177428 1.446200 -7.125000 0.000000 0.000000 -5.658900 34.219300 1.503100 -1.383456 0.335873 3.563442 78.979968 -14.205617 24.047259 -35.127939 48.346639 -10.475039 1.003126 -3.923730 -2.792576 -16.267542 -0.963971 -0.983600 7.125000 0.000000 0.000000 7.191100 -26.630000 3.228800 
-32.330656 28.837154 -7.071767 -174.517660 67.058624 -169.792895 -3.525508 1.991872 1.911929 -14.724652 3.550521 -14.083896 3.346530 10.141497 32.529653 0.006270 3.118582 -11.468494 0.873800 -5.959800 -16.667900 -0.699221 -3.893375 1.229760 26.825332 -0.280934 -24.758870 -4.309750 -11.171182 37.343761 0.522840 -5.499787 -11.714710 -0.007600 0.563800 -1.549100 2.215489 -0.759527 1.654287 0.998900 -1.251497 -4.120682 0.990271 0.271073 3.780561 -6.851615 -7.518468 -3.767499 -0.212074 -8.934317 7.062680 4.621900 -4.354000 2.809100 1.430181 2.322299 0.245116 -76.887461 -1.221581 13.431096 12.654745 -34.342342 -4.064886 -1.030126 0.889297 -171.953672 20.611978 3.369102 1.482000 -7.125000 0.000000 0.000000 -5.910100 34.383400 1.546800 -1.354640 0.346087 3.561325 78.549609 -14.102398 24.212500 -34.724149 47.986816 -10.271370 0.989460 -3.893371 -2.614695 -16.194929 -0.992959 -0.958900 7.125000 0.000000 0.000000 7.251100 -26.699300 3.244300 
-32.312720 28.833771 -7.065515 -174.436580 67.130129 -169.699425 -3.523924 1.975718 1.889828 -14.523890 3.140074 -14.483551 3.527419 10.415219 33.455132 0.040971 2.880306 -11.181489 0.894900 -6.029300 -16.869400 -0.702171 -3.891949 1.231084 26.911970 -0.251292 -24.688789 -4.308075 -11.156740 37.323714 0.504256 -5.490107 -11.944749 -0.012100 0.711400 -1.955000 2.157920 -0.881684 1.917153 1.044158 -1.404716 -4.126435 1.183219 0.181486 3.681938 -6.842324 -7.420850 -3.863967 -0.253570 -8.789221 6.995612 4.584800 -4.276500 2.789000 1.417060 2.311523 0.237710 -76.694113 -1.211727 13.873005 13.211782 -34.958996 -4.284754 -1.016942 0.852671 -172.684504 20.236778 3.549461 1.507500 -7.125000 0.000000 0.000000 -6.211400 34.533800 1.603600 -1.329171 0.354982 3.556823 78.087387 -13.985787 24.403634 -34.253165 47.571887 -10.030146 0.970687 -3.858480 -2.330391 -16.081001 -0.983128 -0.941500 7.125000 0.000000 0.000000 7.339600 -26.736800 3.278000 
-32.292016 28.833361 -7.060595 -174.417880 67.253847 -169.678740 -3.521979 1.959313 1.864384 -14.357095 2.837993 -14.938386 3.720279 10.695765 34.418339 0.080029 2.582120 -10.755321 1.013900 -6.406400 -17.968200 -0.704039 -3.890986 1.232642 26.957406 -0.215594 -24.566707 -4.299239 -11.133286 37.270951 0.488584 -5.490194 -12.166107 -0.018500 0.879300 -2.416900 2.088076 -0.939838 2.186148 1.064348 -1.474287 -4.122804 1.246407 0.139005 3.619744 -6.657453 -7.351060 -4.030605 -0.303926 -8.694296 6.953560 4.498300 -4.220900 2.788200 1.394235 2.295829 0.227237 -76.305317 -1.206067 14.537762 13.811841 -35.602109 -4.523984 -0.997802 0.811689 -173.528259 19.856512 3.700851 1.520400 -7.125000 0.000000 0.000000 -6.508600 34.650200 1.662600 -1.303863 0.368060 3.556197 77.790444 -13.932668 24.459698 -33.803080 47.186225 -9.799644 0.953774 -3.830710 -1.960628 -15.934459 -0.969984 -0.925600 7.125000 0.000000 0.000000 7.447000 -26.765200 3.321700 
-32.272644 28.834796 -7.056598 -174.318322 67.367389 -169.570323 -3.517752 1.940389 1.837956 -14.150741 2.469303 -15.405539 3.916454 10.971250 35.378842 0.113853 2.275501 -10.212920 1.196200 -6.939700 -19.536700 -0.704228 -3.892823 1.236739 27.037760 -0.226700 -24.476369 -4.286573 -11.106543 37.203168 0.465429 -5.451091 -12.355850 -0.028700 1.093300 -3.005500 2.078909 -0.960193 2.473803 1.077492 -1.493072 -4.119776 1.252094 0.124954 3.538343 -6.429507 -7.324702 -4.183387 -0.355747 -8.659530 6.901546 4.402500 -4.193300 2.784300 1.366151 2.276406 0.214040 -75.785293 -1.215338 15.491668 14.423667 -36.242872 -4.765450 -0.974748 0.765086 -174.660561 19.483246 3.855244 1.533700 -7.125000 0.000000 0.000000 -6.795500 34.768800 1.717000 -1.281370 0.390469 3.559904 77.546402 -13.918714 24.447867 -33.307742 46.768551 -9.550793 0.929893 -3.804984 -1.526489 -15.820420 -0.895179 -0.930400 7.125000 0.000000 0.000000 7.528500 -26.728000 3.365300 
-32.252966 28.836539 -7.053318 -174.222124 67.496715 -169.436614 -3.513097 1.920273 1.809850 -13.943634 2.063329 -15.898930 4.112226 11.236023 36.319005 0.164614 1.866264 -9.572193 1.388900 -7.456400 -21.074800 -0.703836 -3.894105 1.241795 27.109097 -0.242233 -24.417685 -4.272150 -11.080670 37.131676 0.434628 -5.360110 -12.477896 -0.034100 1.192500 -3.278700 2.079988 -0.978221 2.749370 1.088744 -1.508612 -4.118837 1.248349 0.112650 3.451546 -6.200506 -7.299408 -4.331333 -0.411607 -8.621039 6.815355 4.308100 -4.160300 2.761600 1.338230 2.258045 0.202075 -75.289154 -1.173763 16.365224 15.054420 -36.889493 -5.019691 -0.951792 0.720293 -175.727837 19.160548 4.022877 1.554100 -7.125000 0.000000 0.000000 -7.044700 34.902600 1.757700 -1.257103 0.419858 3.566297 77.270573 -13.942038 24.497109 -32.820783 46.350168 -9.308355 0.908660 -3.778842 -1.064856 -15.712313 -0.872409 -0.920100 7.125000 0.000000 0.000000 7.605200 -26.744600 3.397100 
-32.232467 28.836231 -7.051166 -174.122808 67.633655 -169.287390 -3.508160 1.900160 1.782533 -13.735478 1.591934 -16.353423 4.301561 11.481809 37.212815 0.249252 1.289769 -8.896351 1.551500 -7.861700 -22.294900 -0.702465 -3.896808 1.248408 27.181689 -0.316558 -24.408433 -4.258509 -11.059319 37.067581 0.401119 -5.252808 -12.581388 -0.044800 1.366000 -3.756400 2.099239 -0.972791 3.013874 1.091910 -1.494206 -4.120295 1.219065 0.117826 3.348908 -6.026912 -7.283768 -4.435414 -0.419311 -8.600037 6.746200 4.257000 -4.138300 2.750900 1.296813 2.231736 0.188707 -74.745797 -1.081314 17.312469 15.725528 -37.563303 -5.293801 -0.927468 0.674021 -176.857634 18.910053 4.196052 1.581400 -7.125000 0.000000 0.000000 -7.235000 35.043500 1.780800 -1.238166 0.454949 3.574011 77.020493 -14.061755 24.534877 -32.357805 45.945833 -9.074446 0.892880 -3.752288 -0.613373 -15.529671 -0.874850 -0.897900 7.125000 0.000000 0.000000 7.737000 -26.789500 3.448800 
-32.213403 28.836641 -7.048911 -174.016665 67.772576 -169.163963 -3.504557 1.883173 1.757966 -13.523086 1.059323 -16.750845 4.477222 11.702656 38.032842 0.377423 0.496633 -8.208664 1.690800 -8.189900 -23.292400 -0.701304 -3.900181 1.256467 27.253991 -0.412499 -24.378481 -4.248837 -11.041376 37.020367 0.357814 -5.105886 -12.688972 -0.056000 1.527000 -4.200200 2.114992 -0.965345 3.372378 1.101648 -1.473646 -4.128131 1.243694 0.122581 3.167729 -5.908793 -7.290766 -4.456916 -0.443205 -8.599596 6.640487 4.212500 -4.127000 2.710900 1.262418 2.199262 0.176129 -74.250131 -0.911821 18.193209 16.353490 -38.186673 -5.548717 -0.903969 0.622274 -177.933766 18.704404 4.684512 1.710300 -7.125000 0.000000 0.000000 -7.428300 35.507700 1.744500 -1.223529 0.502539 3.586074 76.675358 -14.177823 24.678861 -31.783640 45.438550 -8.798386 0.867559 -3.724444 -0.288007 -15.485742 -0.834210 -0.896600 7.125000 0.000000 0.000000 7.774200 -26.784800 3.466500 
-32.195159 28.839716 -7.048501 -174.005295 67.918038 -169.087205 -3.502367 1.865769 1.730529 -13.303870 0.301624 -17.125967 4.633336 11.889575 38.756916 0.583759 -0.717283 -7.465046 1.508600 -7.757100 -21.978800 -0.699528 -3.902092 1.266900 27.271709 -0.515712 -24.409431 -4.236960 -11.026863 36.970448 0.310841 -4.927367 -12.743290 -0.063100 1.620200 -4.457100 2.123381 -0.952951 3.709945 1.102917 -1.448706 -4.139641 1.222561 0.130869 2.989392 -5.762368 -7.299601 -4.523703 -0.489076 -8.604640 6.556073 4.148600 -4.120600 2.691200 1.225222 2.160007 0.159014 -73.692119 -0.687123 19.084493 16.977964 -38.790156 -5.803004 -0.875196 0.566553 -179.023923 18.405907 5.383966 1.891000 -7.125000 0.000000 0.000000 -7.725700 36.179700 1.687800 -1.213515 0.552889 3.596303 76.362214 -14.313796 24.830040 -31.167242 44.898152 -8.505872 0.835477 -3.697207 0.039813 -15.469226 -0.722070 -0.917700 7.125000 0.000000 0.000000 7.791400 -26.705000 3.489100 
-32.177325 28.841356 -7.047271 -173.994877 68.052548 -169.009673 -3.501810 1.851007 1.703049 -13.080357 -0.562064 -17.440563 4.762320 12.037885 39.357072 0.834600 -2.232564 -6.650129 1.293400 -7.205700 -20.326200 -0.697545 -3.904232 1.277822 27.301503 -0.639823 -24.457547 -4.226410 -11.014295 36.926965 0.261926 -4.743545 -12.807507 -0.076800 1.787700 -4.919400 2.127938 -0.932725 4.083444 1.104222 -1.411635 -4.152620 1.223481 0.143735 2.765235 -5.671660 -7.353041 -4.469956 -0.495279 -8.660844 6.411826 4.126300 -4.134300 2.625200 1.183120 2.124216 0.145213 -73.131353 -0.440323 19.998750 17.585143 -39.365668 -6.053496 -0.845735 0.514685 179.966915 18.170857 6.036649 2.058800 -7.125000 0.000000 0.000000 -7.972300 36.805400 1.619600 -1.205878 0.614261 3.615835 76.003530 -14.495801 25.042364 -30.567274 44.360352 -8.229513 0.795807 -3.670002 0.228681 -15.562685 -0.528333 -0.969800 7.125000 0.000000 0.000000 7.732800 -26.535100 3.493400 
-32.157954 28.843098 -7.047169 -173.889247 68.196731 -168.858657 -3.499589 1.836050 1.673981 -12.816058 -1.431238 -17.711995 4.856649 12.146607 39.816833 1.133435 -4.182640 -5.575519 1.042100 -6.492300 -18.219600 -0.695290 -3.908789 1.288285 27.355506 -0.718636 -24.455808 -4.217807 -11.000495 36.887157 0.214620 -4.578379 -12.908557 -0.090700 1.942400 -5.346500 2.196478 -0.904054 4.462345 1.101242 -1.360205 -4.158283 1.155892 0.167325 2.574881 -5.508673 -7.410640 -4.473062 -0.540746 -8.722473 6.268225 4.067500 -4.149700 2.563500 1.148584 2.091926 0.132356 -72.554718 -0.156986 20.871225 18.204020 -39.932541 -6.320806 -0.816584 0.474010 179.089017 17.944746 6.343080 2.119000 -7.125000 0.000000 0.000000 -8.170400 37.078700 1.605400 -1.207243 0.675896 3.636713 75.722001 -14.625255 25.218681 -29.859298 43.747984 -7.918032 0.744031 -3.645992 0.405866 -15.763107 -0.243002 -1.057400 7.125000 0.000000 0.000000 7.597800 -26.262800 3.480300 
